<svg width="356" height="66" viewBox="0 0 356 66" fill="none" xmlns="http://www.w3.org/2000/svg">
<g clip-path="url(#clip0_5416_26021)">
<path d="M84.7781 16.7953C81.8411 16.7953 80.7661 18.0043 81.6981 21.1753L87.2511 41.2513H87.3471L96.7321 15.9913H98.5051L107.749 40.9253H107.845C109.944 34.3873 111.905 27.7563 113.959 21.1273C114.849 18.2343 114.052 16.8343 110.27 16.7853V15.5703H120.546V16.7853C119.144 16.7853 117.273 17.8633 116.482 20.4293L107.795 48.2563H105.649L96.2641 22.8993L86.9251 48.2563H84.6181L77.5741 23.2753C76.2631 18.6983 74.7201 16.8083 72.2471 16.8083V15.5703H84.7781V16.7953Z" fill="white"/>
<path d="M122.485 47.0394C126.686 46.5264 126.504 46.7574 126.504 42.4164V21.4044C126.504 17.0654 126.686 17.2954 122.485 16.7854V15.5684H143.691V23.0864H142.472C142.009 19.6304 141.07 17.0654 137.71 17.0654H131.361V30.4174H135.282C138.225 30.4174 139.487 29.2514 139.577 26.3564H140.794V36.2984H139.577C139.487 33.5444 138.412 31.9064 135.282 31.9064H131.361V42.4644C131.361 46.4334 133.178 46.7574 137.384 46.7574C144.156 46.7574 143.83 44.8484 145.979 39.8514H147.192L145.788 48.2544H122.485V47.0394Z" fill="white"/>
<path d="M168.421 22.5238C168.049 19.2548 166.274 16.6388 162.538 16.6388C159.829 16.6388 157.402 18.0398 157.402 21.4938C157.402 24.7648 160.671 26.7288 165.341 30.2248C170.288 33.9148 171.877 36.2968 171.877 40.1738C171.877 45.7318 166.18 48.8088 160.577 48.8088C157.589 48.8088 155.022 48.2528 152.592 47.3178C152.407 47.2228 152.264 47.0378 152.264 46.6638V39.9398H153.481C153.994 45.1188 157.402 47.1748 160.995 47.1748C164.315 47.1748 167.021 44.6558 167.021 41.2458C167.021 38.2138 165.385 35.7378 158.382 31.1138C155.863 29.4348 152.735 27.6158 152.735 22.5238C152.735 18.3208 157.402 15.0078 162.772 15.0078C164.78 15.0078 167.439 15.2408 169.312 15.8948C169.594 15.9878 169.636 16.1748 169.636 16.4058V22.5238H168.421Z" fill="white"/>
<path d="M190.512 42.4163C190.512 46.7593 190.325 46.5263 194.528 47.0393V48.2543H181.638V47.0393C185.838 46.5263 185.646 46.7593 185.646 42.4163V17.0653H181.447C177.387 17.0653 176.449 19.6303 174.914 22.7083H173.748L175.003 15.5703H201.158L202.42 22.7083H201.251C199.71 19.6303 198.78 17.0653 194.717 17.0653H190.512V42.4163Z" fill="white"/>
<path d="M343.592 42.4163C343.592 46.7593 343.403 46.5263 347.608 47.0393V48.2563L334.714 48.2543V47.0393C338.915 46.5263 338.73 46.7593 338.73 42.4163V17.0653H334.527C330.467 17.0653 329.53 19.6303 327.991 22.7083H326.824L328.083 15.5703H354.24L355.5 22.7083H354.331C352.788 19.6303 351.857 17.0653 347.791 17.0653H343.592V42.4163Z" fill="white"/>
<path d="M211.726 23.0423H211.631V41.9493C211.631 42.9293 211.772 43.7243 211.865 44.4743C212.098 46.1503 213.686 46.8063 215.882 47.0373V48.2543H205.374V47.0373C207.572 46.8063 209.157 46.1503 209.392 44.4743C209.485 43.7243 209.668 42.9293 209.668 41.9493V20.7973C208.736 18.6003 206.449 16.7853 204.21 16.7853V15.5703H213.427L226.455 41.6723L239.903 15.5703H247.831V16.7853C244.423 16.7853 243.164 18.6483 243.164 21.5903V42.4163C243.164 46.7593 242.977 46.5263 247.178 47.0373V48.2543H234.255V47.0373C238.454 46.5263 238.267 46.7593 238.267 42.4163V22.8053H238.176L225.476 48.5303H224.332L211.726 23.0423Z" fill="white"/>
<path d="M280.06 32.3318C280.06 21.1718 274.037 16.6418 268.341 16.6418C260.401 16.6418 257.137 23.7358 257.137 30.0868C257.137 41.3888 262.923 47.1768 268.949 47.1768C277.634 47.1768 280.06 38.5888 280.06 32.3318ZM251.544 32.5168C251.544 22.4318 259.529 15.0078 269.408 15.0078C279.715 15.0078 285.703 23.7358 285.703 30.9258C285.703 40.7848 278.197 48.8088 267.697 48.8088C258.624 48.8088 251.544 41.5758 251.544 32.5168Z" fill="white"/>
<path d="M318.392 48.2543C310.964 39.4743 303.263 30.2763 295.652 21.3103V41.9493C295.652 42.9293 295.836 43.7233 295.93 44.4743C296.162 46.1503 297.753 46.8063 300.835 47.0393V48.2543H289.396V47.0393C291.635 46.8063 293.178 46.1503 293.41 44.4743C293.504 43.7233 293.689 42.9293 293.689 41.9493V19.9563C292.383 18.2743 290.939 16.7853 288.273 16.7853V15.5703H297.44C304.393 24.0183 311.63 32.6123 318.592 41.0643H318.681V21.8713C318.681 20.8913 318.496 20.0973 318.402 19.3503C318.172 17.6683 316.581 17.0173 313.501 16.7853V15.5703H324.938V16.7853C322.745 17.0173 321.156 17.6683 320.924 19.3503C320.824 20.0973 320.643 20.8913 320.643 21.8713V48.2543H318.392Z" fill="white"/>
<path d="M44.204 37.1486L45.483 36.0396H43.693L42.933 34.3696L42.119 36.0396H40.383L41.656 37.1486L41.365 38.8346L42.933 37.9766L44.509 38.8346L44.204 37.1486ZM39.348 49.6566C39.463 49.9896 39.565 50.3236 39.673 50.6616C41.816 49.9606 44.117 49.9606 46.258 50.6616C46.37 50.3236 46.476 49.9896 46.586 49.6566C44.235 48.8906 41.699 48.8906 39.348 49.6566ZM36.784 41.7836L38.958 48.1926L39.103 48.6226C39.103 48.6226 40.721 48.1116 42.933 48.1116C45.145 48.1116 46.764 48.6226 46.764 48.6226L46.91 48.1926H46.916L49.084 41.7836H49.082L47.066 41.9226C47.066 41.9226 47.211 45.9806 45.325 45.9806C44.675 45.9806 44.274 45.4846 44.034 44.7686C43.905 44.2246 43.807 43.6056 43.745 42.9636C43.693 41.9026 43.766 40.8036 43.836 40.0996H42.031C42.1 40.8186 42.183 41.9496 42.121 43.0236C42.059 43.6306 41.971 44.2156 41.839 44.7346C41.608 45.4706 41.209 45.9806 40.553 45.9806C38.655 45.9806 38.8 41.9226 38.8 41.9226L36.784 41.7836ZM23.494 46.2866H17.725L18.618 47.6756L19.31 48.2196L20.126 51.3556H21.102L21.758 48.2196L22.452 47.6756L23.494 46.2866ZM19.133 35.6636C20.278 37.0776 15.526 38.4946 18.105 42.2516C17.04 39.5456 21.339 37.1256 19.133 35.6636ZM21.227 40.8596C24.415 35.4516 20.469 35.2356 20.469 35.2356C21.571 35.7486 21.287 36.7666 19.862 39.1936C18.762 41.0756 18.961 42.5256 19.499 43.5406H20.304C20.198 42.8386 20.5 42.1016 21.227 40.8596ZM22.77 42.8136C24.711 40.0186 23.235 38.5296 23.235 38.5296C23.328 39.4666 23.299 39.9516 21.854 42.0006C21.43 42.5956 21.227 43.1066 21.152 43.5406H22.238C22.423 43.2836 22.618 43.0376 22.77 42.8136ZM23.8 44.3156H17.277V45.2626H23.8V44.3156ZM24.04 19.4016C22.742 19.4886 18.589 19.9876 17.042 22.8656V13.7716C17.042 12.9326 18.674 10.0916 24.04 9.93762V19.4016ZM15.964 22.8656C14.425 19.9876 10.269 19.4886 8.965 19.4016V9.93762C14.33 10.0916 15.964 12.9326 15.964 13.7716V22.8656ZM25.609 21.3196V9.59863C25.395 9.60463 25.216 9.64162 25.01 9.65462V8.76562H24.504C20.064 8.76562 17.509 10.5436 16.502 12.1196C15.49 10.5436 12.934 8.76562 8.502 8.76562H7.998V9.65462C7.79 9.64162 7.61 9.60463 7.395 9.59863V21.3196C11.57 21.4106 14.118 22.6896 15.505 23.7446C15.665 23.9136 16.054 24.0376 16.5 24.0376C16.957 24.0376 17.343 23.9136 17.494 23.7446C18.886 22.6896 21.436 21.4106 25.609 21.3196ZM51.371 14.9766L52.282 15.6546V12.1296L51.371 12.8156H47.523V8.79862L48.2 7.88462H44.686L45.361 8.79663V12.8156H41.525L40.611 12.1296V15.6546L41.525 14.9766H45.361V23.8716L44.686 24.7816H48.2L47.523 23.8696V14.9766H51.371ZM62.249 6.18463C62.22 15.3486 61.309 23.0566 59.803 29.6386H32.641V1.54262C51.09 1.64062 60.126 5.20763 62.249 6.18463ZM1.514 6.18463C3.643 5.20963 12.691 1.63962 31.126 1.54262V29.6386H3.963C2.457 23.0566 1.544 15.3486 1.514 6.18463ZM4.291 31.1526H31.126V63.5496C20.87 60.2416 9.437 51.7576 4.291 31.1526ZM32.641 63.5486V31.1526H59.475C54.332 51.7546 42.899 60.2396 32.641 63.5486ZM63.771 5.71063V5.24563L63.358 5.03162C61.715 4.19462 52.501 0.015625 31.882 0.015625C11.263 0.015625 2.05 4.19462 0.411 5.03162L0 5.24563V5.71063C0 47.2836 17.222 61.0766 31.67 65.3196L31.882 65.3816L32.094 65.3196C46.548 61.0766 63.771 47.2836 63.771 5.71063Z" fill="white"/>
</g>
<defs>
<clipPath id="clip0_5416_26021">
<rect width="355.5" height="65.366" fill="white" transform="translate(0 0.015625)"/>
</clipPath>
</defs>
</svg>
