<svg width="101" height="101" viewBox="0 0 101 101" fill="none" xmlns="http://www.w3.org/2000/svg">
<g clip-path="url(#clip0_5416_26037)">
<path d="M99.6947 50.023C99.6947 76.9498 77.8672 98.7773 50.9404 98.7773C24.015 98.7773 2.1875 76.9498 2.1875 50.023C2.1875 23.0976 24.015 1.26872 50.9404 1.26872C77.8672 1.26872 99.6947 23.0976 99.6947 50.023Z" fill="white"/>
<path d="M50.9346 99.4512C23.6779 99.4512 1.50342 77.2767 1.50342 50.02C1.50342 22.7633 23.6779 0.588772 50.9346 0.588772C78.1913 0.588772 100.366 22.7633 100.366 50.02C100.366 77.2767 78.1913 99.4512 50.9346 99.4512ZM50.9346 1.94254C24.4245 1.94254 2.85715 23.5099 2.85715 50.02C2.85715 76.5302 24.4245 98.0975 50.9346 98.0975C77.4448 98.0975 99.0121 76.5302 99.0121 50.02C99.0121 23.5099 77.4448 1.94254 50.9346 1.94254Z" fill="black"/>
<path d="M50.9346 3.70953C30.5902 3.70953 13.3102 16.8274 7.08895 35.0659C8.29764 36.1935 9.60161 37.2216 10.971 38.1444C11.6464 38.5995 11.5113 38.5156 12.211 38.928C12.7471 39.2451 13.2902 39.548 13.8434 39.8366C15.099 40.495 16.393 41.078 17.7155 41.5885C20.8567 42.8029 23.9196 43.5125 27.3253 43.9135C37.1356 45.0681 46.6914 42.6522 55.9954 39.7713C63.677 37.3923 70.9406 34.1658 78.9521 32.4352C83.7285 31.4029 88.542 31.1596 93.3511 31.4042C86.1815 15.0983 69.8897 3.70953 50.9346 3.70953ZM84.003 19.2974C83.9333 19.2562 83.8778 19.2021 83.8366 19.1353L84.003 19.2974ZM16.5409 37.9667C15.7546 38.1558 15.2256 38.0919 14.9782 37.9696C14.5828 37.7747 14.152 37.506 13.9472 37.3823C12.757 36.6543 11.5469 35.8579 10.496 35.0218C10.2685 34.8398 10.1718 34.2738 10.9752 34.1245C14.3852 33.4946 17.4368 32.7679 20.4642 31.7C22.8702 30.8511 25.2748 29.823 27.4462 28.583C28.0846 28.219 28.9222 27.5293 29.6403 27.4142C29.8422 27.3815 30.2119 27.3431 30.4793 27.4952C31.4548 27.8507 34.8121 31.6702 35.1605 32.057C33.9631 33.1932 32.6805 34.2468 31.3367 35.2394C30.8845 34.8341 30.0797 34.0249 29.983 33.9041C29.5635 33.4846 28.9151 33.4078 28.2283 33.7505C24.6576 35.5366 20.9292 36.9087 16.5409 37.9667ZM44.5029 33.1931H44.4702C41.457 36.0854 38.2248 38.7644 34.7467 41.196C34.0783 41.6639 34.0186 41.7962 32.7644 41.7976C31.7889 41.799 30.4921 41.7577 30.0726 41.7321C29.3374 41.7023 28.6307 41.644 27.9396 41.5715C27.459 41.5217 27.2073 41.0127 27.9467 40.5633C31.6695 38.3038 35.0183 35.6731 38.0855 32.7722C38.505 32.3357 38.9373 31.9134 39.3823 31.5053C42.1026 28.8021 44.8314 25.4731 47.2957 22.349C47.6114 21.9494 47.9555 21.4489 48.3267 20.9526C48.4731 20.7578 48.9054 20.5005 49.1912 20.4663C49.888 20.3824 50.4284 20.9213 50.9189 21.3095C52.3765 22.4628 53.7814 23.599 55.1764 24.7522C54.3445 26.2012 53.4231 27.5635 52.5485 28.9727C52.0395 28.5816 51.5432 28.1778 51.0484 27.7725C50.5947 27.4 50.0487 27.2279 49.2581 28.1579C48.1503 29.4604 46.9971 30.7132 45.7998 31.9276C45.3817 32.3627 44.9494 32.785 44.5029 33.1931ZM86.2696 28.775C84.9998 28.9854 83.7669 29.2286 82.5269 29.4334C81.9326 29.5315 81.2813 29.4263 79.7142 27.9659C78.6648 26.898 77.6324 25.813 76.6371 24.691C75.3985 23.2918 74.8624 23.68 74.3804 24.1194C74.0249 24.4436 73.675 24.7749 73.2968 25.0764C71.7227 23.7098 70.1926 22.3006 68.6497 20.9028C68.007 20.3212 66.8239 18.9661 65.9423 20.7123C63.1978 26.1429 60.2671 31.3943 56.8643 36.1765C56.176 37.1434 55.8988 37.3837 54.8522 37.7278C53.0263 38.3279 51.1777 38.9308 49.2609 39.4029C48.8116 39.5138 48.22 39.0958 48.7291 38.4843C50.033 36.9216 51.3996 35.3488 52.6168 33.6809C55.7167 29.4248 58.5053 24.6654 60.9937 19.7198C61.9195 17.8811 62.8295 15.997 63.7865 14.1342C64.1065 13.5157 64.3852 12.8075 64.7521 12.3169C64.9383 12.0666 65.2583 11.7595 65.6152 11.7324C66.2295 11.6841 66.548 12.0936 67.1453 12.6411C67.2818 12.7477 68.6185 14.056 68.7934 14.2536C70.3021 15.6173 71.7781 17.0037 73.2627 18.3873C73.6793 18.083 73.9922 17.7233 74.4273 17.3493C74.77 17.0535 75.2449 16.553 75.8237 16.57C76.5716 16.5913 77.412 17.8925 77.8201 18.3561C79.5649 20.3426 81.3766 22.5211 83.1384 24.2971C83.7442 24.9072 85.2685 26.3477 86.3706 27.3985C87.1726 28.1622 87.1356 28.6328 86.2696 28.775ZM95.6933 38.0858C95.5141 37.4103 95.3207 36.7406 95.1117 36.0779C92.2108 35.748 89.2958 35.5717 86.3778 35.6741C82.1972 35.8191 79.0731 36.3978 75.0033 37.5809C71.5664 38.5791 66.3349 40.4406 63.1425 41.5639C58.3732 43.1992 53.564 44.7137 48.6923 46.0219C39.6285 48.4535 29.9533 49.5413 20.6805 47.6386C15.5144 46.5778 9.98569 44.5416 5.43105 41.3577C4.89923 44.1662 4.61768 47.0628 4.61768 50.0262C4.61768 75.6049 25.3546 96.3418 50.9347 96.3418C76.5149 96.3418 97.2504 75.6049 97.2504 50.0262C97.2504 45.8967 96.7072 41.8953 95.6933 38.0858Z" fill="#4196B4"/>
<path d="M84.0028 19.2949L83.8364 19.1328C83.8777 19.1996 83.9331 19.2551 84.0028 19.2949Z" fill="white"/>
<path d="M10.9521 52.5312V65.1892H14.2071V61.572H18.5465C19.8121 61.572 20.7321 61.286 21.3038 60.7144C21.8768 60.1413 22.1614 59.2227 22.1614 57.9571V56.1485C22.1614 54.883 21.8768 53.9643 21.3038 53.3913C20.7321 52.8182 19.8121 52.5314 18.5465 52.5314L10.9521 52.5312ZM43.6556 52.5312L47.0929 65.1892H50.5278L52.6986 57.3238L54.8671 65.1892H58.302L61.737 52.5312H58.2109L56.3134 60.6676L54.1426 52.5312H51.252L49.0813 60.6676L47.1838 52.5312H43.6556ZM85.1288 53.4267L84.7689 55.5885H83.6846V58.0281H84.7689V62.6274C84.7689 63.445 85.0139 64.1003 85.5088 64.5937C86.0036 65.0857 86.6591 65.3314 87.4795 65.3314H88.7104C89.1199 65.3314 89.4882 65.3054 89.8124 65.2514C90.1992 65.2514 90.5669 65.2264 90.9167 65.1781V62.8206H88.566C88.3854 62.8206 88.2336 62.7593 88.1127 62.6384C87.9918 62.5176 87.9328 62.368 87.9328 62.1874V58.0281H90.1923V55.5886H87.9328V53.4267L85.1288 53.4267ZM14.2068 55.0619H17.824C18.5464 55.0619 18.9083 55.4246 18.9083 56.1484V57.957C18.9083 58.6794 18.5464 59.0412 17.824 59.0412H14.2068V55.0619ZM65.3165 55.4241C64.4136 55.4241 63.7035 55.6794 63.1903 56.1884C62.6783 56.6975 62.4237 57.4027 62.4237 58.3014V62.6184C62.4237 63.4332 62.6702 64.0862 63.1636 64.5782C63.6584 65.0688 64.3153 65.3158 65.1344 65.3158H67.2696C68.0048 65.3158 68.6866 65.2595 69.3138 65.1514C70.0475 65.1514 70.7649 65.1037 71.4645 65.007V62.7407C70.8488 62.8089 70.2346 62.8768 69.6203 62.9451H67.9117H66.2209C66.0403 62.9451 65.8885 62.89 65.7676 62.7762C65.6482 62.6625 65.5876 62.5181 65.5876 62.3474V61.6631H71.8244V58.317C71.8244 57.4126 71.5697 56.7048 71.0578 56.1929C70.5445 55.681 69.8367 55.4241 68.9337 55.4241H65.3165ZM28.1651 55.4797C27.4654 55.4797 26.82 55.5324 26.2298 55.6419C25.5415 55.6419 24.8675 55.6942 24.2035 55.7952V58.0281C24.7823 58.0281 25.3623 57.9902 25.9409 57.9148C26.4358 57.8594 26.9626 57.8304 27.5229 57.8304H29.0871C29.2677 57.8304 29.4195 57.8871 29.5403 58.0037C29.6598 58.1189 29.7203 58.2635 29.7203 58.437V59.1302H26.012C25.1915 59.1302 24.5361 59.3789 24.0412 59.8723C23.5464 60.3671 23.3013 61.0248 23.3013 61.8453V62.6585C23.3013 63.4776 23.5464 64.1344 24.0412 64.6293C24.5361 65.1227 25.1915 65.3692 26.012 65.3692H26.6452C27.0547 65.3692 27.453 65.3133 27.8383 65.1981C28.2251 65.0843 28.575 64.9593 28.8893 64.827C29.2504 64.6692 29.5859 64.4897 29.9002 64.2849L30.0802 65.1892H32.8841V58.1748C32.8841 57.36 32.6354 56.7071 32.142 56.2151C31.6472 55.7245 30.9903 55.4796 30.1712 55.4796L28.1651 55.4797ZM37.3679 55.6063C36.4636 55.6063 35.7549 55.8593 35.2417 56.3684C34.7298 56.8789 34.4729 57.5827 34.4729 58.4814V62.6184C34.4729 63.4347 34.7216 64.0862 35.215 64.5782C35.7099 65.0688 36.3667 65.3158 37.1858 65.3158H39.1833C39.8772 65.3158 40.5181 65.2617 41.1097 65.1536C41.7965 65.1536 42.4775 65.1037 43.1515 65.007V62.6584C42.5742 62.7153 41.9951 62.7704 41.4162 62.8273C40.9214 62.87 40.3913 62.8917 39.8254 62.8917H38.2701C38.0895 62.8917 37.9377 62.8312 37.8169 62.7118C37.6974 62.5923 37.6369 62.4435 37.6369 62.2629V58.7635C37.6369 58.2857 37.8792 58.0458 38.3612 58.0458H43.1515V55.6063L37.3679 55.6063ZM75.7662 55.6063C74.9471 55.6063 74.2903 55.8528 73.7955 56.3462C73.3006 56.841 73.0534 57.4979 73.0534 58.3169V58.9502C73.0534 59.7707 73.3006 60.4276 73.7955 60.9209C74.2903 61.4158 74.9471 61.663 75.7662 61.663H79.6545V62.2696C79.6545 62.4417 79.5918 62.5855 79.4723 62.7006C79.3514 62.8158 79.2019 62.8739 79.0213 62.8739H77.086H75.2064C74.5437 62.8043 73.8869 62.7348 73.2356 62.6651V65.0114C73.9708 65.1067 74.7295 65.1536 75.5131 65.1536C76.1885 65.2616 76.9295 65.3158 77.7372 65.3158H80.1056C80.9247 65.3158 81.5815 65.0709 82.0764 64.5803C82.5698 64.0912 82.8185 63.4393 82.8185 62.6273V61.9097C82.8185 61.0963 82.5698 60.4458 82.0764 59.9567C81.5815 59.4661 80.9247 59.2212 80.1056 59.2212H76.8506C76.67 59.2212 76.5205 59.1621 76.3996 59.0413C76.2787 58.9204 76.2174 58.7686 76.2174 58.588C76.2174 58.4074 76.2787 58.2578 76.3996 58.137C76.5205 58.0175 76.67 57.957 76.8506 57.957H81.9143V55.6063L75.7662 55.6063ZM66.3123 57.6838H67.9387C68.4207 57.6838 68.6608 57.9261 68.6608 58.4081V59.4035H65.5879V58.4081C65.5879 57.9261 65.8302 57.6838 66.3123 57.6838ZM27.0983 61.3921H29.7201V62.4764C29.4784 62.5489 29.2312 62.6102 28.978 62.6586C28.7619 62.7069 28.5254 62.7482 28.2737 62.7852C28.0206 62.8208 27.7783 62.8385 27.5494 62.8385H27.0984C26.9178 62.8385 26.766 62.778 26.6451 62.6586C26.5242 62.5377 26.4651 62.3859 26.4651 62.2053V62.0253C26.4651 61.8447 26.5242 61.6929 26.6451 61.5721C26.766 61.4512 26.9177 61.3921 27.0983 61.3921ZM23.2612 68.2109C21.4652 68.2109 20.9483 69.0479 20.9483 71.3416C20.9483 73.4589 21.3927 74.4722 23.2612 74.4722C23.8115 74.4722 24.6114 74.3574 25.021 74.2678L24.9943 73.2636C24.6388 73.3176 23.8841 73.388 23.4746 73.388C22.4252 73.388 22.2104 72.9698 22.2104 71.3417C22.2104 69.6267 22.5048 69.2975 23.4391 69.2975C23.8387 69.2975 24.5863 69.3683 24.9944 69.4308L25.03 68.4532C24.6574 68.3651 23.8926 68.2109 23.2612 68.2109ZM73.3619 68.2109C71.5645 68.2109 71.0512 69.0479 71.0512 71.3416C71.0512 73.4589 71.4935 74.4722 73.3619 74.4722C73.9122 74.4722 74.7143 74.3574 75.1238 74.2678L75.0949 73.2636C74.7394 73.3176 73.9847 73.388 73.5752 73.388C72.5258 73.388 72.3132 72.9698 72.3132 71.3417C72.3132 69.6267 72.6054 69.2975 73.5396 69.2975C73.9392 69.2975 74.6868 69.3683 75.0949 69.4308L75.1305 68.4532C74.7579 68.3651 73.9933 68.2109 73.3619 68.2109ZM29.0937 68.2132C27.1896 68.2132 26.5874 69.3323 26.5874 71.3771C26.5874 73.4219 27.1897 74.4721 29.0937 74.4721C30.9963 74.4721 31.6022 73.4219 31.6022 71.3771C31.6022 69.3323 30.9963 68.2132 29.0937 68.2132ZM52.0184 68.3176V74.3655H53.2471V72.3393H54.4292L55.1313 74.3655H56.4755L55.6112 72.0549C56.1629 71.7079 56.5021 71.1468 56.5021 70.3107C56.5021 68.9329 55.7448 68.3176 54.3669 68.3176H52.0184ZM33.5394 68.3199V74.3656H34.7681V69.3864H34.857L36.3678 74.3656H38.3875V68.3199H37.1588V73.2992H37.0721L35.6124 68.3199H33.5394ZM40.5915 68.3199V74.3656H41.8202V72.2327H43.971V71.164H41.8202V69.3865H44.4509V68.32L40.5915 68.3199ZM46.204 68.3199V74.3656H50.1167V73.2992H47.4305V71.8505H49.5812V70.7996H47.4305V69.3865H50.1167V68.32L46.204 68.3199ZM58.4217 68.3199V74.3656H62.3344V73.2992H59.6482V71.8505H61.8013V70.7996H59.6482V69.3865H62.3344V68.32L58.4217 68.3199ZM64.2385 68.3199V74.3656H65.465V69.3864H65.5538L67.0647 74.3656H69.0844V68.3199H67.8557V73.2992H67.769L66.3092 68.3199H64.2385ZM77.008 68.3199V74.3656H80.9208V73.2992H78.2346V71.8505H80.3876V70.7996H78.2346V69.3865H80.9208V68.32L77.008 68.3199ZM29.0938 69.2798C30.0892 69.2798 30.3381 69.9808 30.3381 71.3773C30.3381 72.7736 30.0892 73.4058 29.0938 73.4058C28.097 73.4058 27.8495 72.7736 27.8495 71.3773C27.8495 69.9809 28.0969 69.2798 29.0938 69.2798ZM53.2471 69.3686H54.367C54.9542 69.3686 55.2468 69.7497 55.2468 70.3285C55.2468 70.8617 54.999 71.2883 54.3847 71.2883H53.2471L53.2471 69.3686Z" fill="white"/>
</g>
<defs>
<clipPath id="clip0_5416_26037">
<rect width="100" height="100" fill="white" transform="translate(0.945312 0.015625)"/>
</clipPath>
</defs>
</svg>
