<svg width="510" height="108" viewBox="0 0 510 108" fill="none" xmlns="http://www.w3.org/2000/svg">
<g clip-path="url(#clip0_5416_24244)">
<path d="M32.3496 17.9199C21.2343 17.9199 8.4907 20.165 2.0482 23.2567L0 24.2396L0.0134662 26.5116C0.0908838 39.8114 0.843177 53.6456 5.78276 64.7256C11.3181 77.1427 20.4197 85.8261 32.8335 90.5334L34.105 91.0156L35.3773 90.5334C47.7911 85.8261 56.8919 77.1427 62.4272 64.7256C67.3668 53.6456 68.1191 39.8114 68.1974 26.5116L68.2108 24.2396L66.1626 23.2567C59.7193 20.165 46.9757 17.9199 35.8595 17.9199H32.3496Z" fill="#BC9B6A"/>
<path d="M32.3495 19.7139C21.4706 19.7139 9.0535 21.8841 2.82391 24.8739L1.7998 25.3654L1.8057 26.5014C1.88227 39.6051 2.61606 53.218 7.42016 63.9951C12.7544 75.9603 21.5186 84.3248 33.4695 88.8571L34.1048 89.0977L34.741 88.8571C46.6911 84.3248 55.4553 75.9603 60.7895 63.9951C65.5936 53.218 66.3266 39.6051 66.4031 26.5014L66.4099 25.3654L65.3858 24.8739C59.157 21.8841 46.7391 19.7139 35.8594 19.7139H32.3495Z" fill="#231F20"/>
<path d="M34.1052 87.1797C45.8373 82.7307 54.0579 74.6911 59.1514 63.2644C63.5466 53.4054 64.5252 41.0329 64.6102 26.4902C58.6415 23.6257 46.5366 21.5068 35.8597 21.5068H32.3498C21.6737 21.5068 9.56883 23.6257 3.6001 26.4902C3.68509 41.0329 4.66375 53.4054 9.05804 63.2644C14.1525 74.6911 22.373 82.7307 34.1052 87.1797Z" fill="#9E0032"/>
<path d="M42.8533 64.5481C43.5559 71.4054 50.6884 73.7784 52.8831 73.7103C55.2813 70.6943 62.8077 60.8404 62.8077 46.0848C62.8077 29.4779 49.3454 16.0156 32.7393 16.0156C26.4576 16.0156 20.5772 17.8947 15.7538 21.1883C19.6044 23.0135 21.8714 29.6386 22.012 32.4694C22.0406 32.9238 22.0414 33.3378 22.0263 33.7199C21.8622 34.9148 21.8756 35.6654 21.189 37.0328C21.189 37.0328 20.3256 37.7506 19.5194 38.5349C19.0145 38.3279 18.1335 38.4011 17.4982 38.6645C15.9776 39.3192 13.3849 42.1365 13.034 43.3424C13.034 43.3424 13.034 43.344 13.034 43.3449C13.0324 43.3491 13.0298 43.355 13.029 43.36C12.5258 44.682 13.4758 46.7841 15.9061 49.5854C15.2909 50.9015 14.7852 52.0569 14.8407 52.2395C14.8424 52.2454 14.8466 52.2513 14.8491 52.2572H14.8433C15.1411 53.2686 16.5725 53.5775 17.8264 53.9982C18.1268 54.3777 18.237 54.9685 17.7818 55.6097C17.7834 55.6131 17.7851 55.6164 17.786 55.6198C17.786 55.6198 17.7834 55.6181 17.7818 55.6173C17.6799 56.1668 17.9728 56.5101 18.4146 56.6372C18.1461 56.8879 17.8928 57.2304 17.7607 57.5325C17.7607 57.5333 17.759 57.5333 17.759 57.5342C17.7607 57.5359 17.7616 57.5376 17.7624 57.5392C18.0106 58.1451 18.1545 58.8259 18.1343 59.0539C18.1352 59.0539 18.1369 59.0522 18.1377 59.0522C18.1377 59.1103 18.1343 59.1659 18.131 59.2172C18.1015 59.6531 17.9038 59.8887 17.775 60.2346C17.4864 61.0079 17.0648 62.4536 17.6387 63.1705C17.6816 63.2421 17.7338 63.3136 17.8036 63.3843C18.5181 64.0995 20.4341 64.6431 21.6366 65.1009C22.8366 65.5579 23.8111 66.0358 24.1477 67.1079C24.5634 68.4332 24.6627 69.3589 24.1207 70.3973C23.4686 71.6461 18.1613 72.5751 14.7675 72.9899C19.5539 79.4341 26.7487 84.5294 34.1051 87.1809C40.5855 84.7339 46.1368 81.3014 51.1698 75.7214C46.8815 74.7159 41.411 71.179 41.2906 64.4614L41.3108 64.4631C41.3108 64.4631 41.7274 64.4892 42.8541 64.5472" fill="#231F20"/>
<path d="M33.9368 47.4277C32.8504 47.4277 31.0193 48.8583 30.6768 49.2007C28.3787 48.1808 27.416 47.9427 25.3578 47.5422C23.2995 47.1416 21.8689 48.3433 20.8961 48.6285C19.9234 48.9155 19.352 48.2288 18.7806 46.3413C18.4659 46.0266 17.5318 46.1772 17.5302 46.1772C17.4123 46.428 17.2718 46.7217 17.1178 47.0423L15.9052 49.5861C15.2901 50.9014 14.7844 52.0568 14.8399 52.2394C14.8416 52.2453 14.8458 52.2512 14.8483 52.2571C14.9047 52.2621 17.6118 52.4455 19.58 52.5146C19.9991 52.9235 19.0491 54.2968 18.0443 54.0747C17.9728 54.0486 17.8987 54.0234 17.8255 53.9981C18.1259 54.3776 18.2362 54.9684 17.7809 55.6096C17.7826 55.6129 17.7843 55.6163 17.7851 55.6197C18.1663 55.9857 20.371 55.5423 20.9946 55.6163C22.8694 55.8368 22.5934 56.6076 22.5934 56.6076C21.4498 56.4048 19.7391 56.3501 18.8227 56.6951C18.6771 56.6951 18.54 56.6732 18.4137 56.637C18.1453 56.8878 17.892 57.2303 17.7599 57.5324C18.3969 57.8185 18.4878 57.5778 19.3528 57.444C20.1472 57.3229 21.1679 57.2614 21.274 57.8513C20.1893 57.8513 18.869 58.8586 18.1369 59.053C18.1369 59.111 18.1335 59.1666 18.1301 59.2179C18.1007 59.6538 17.9029 59.8894 17.7742 60.2353C17.4856 61.0086 17.064 62.4543 17.6379 63.1713C17.2457 62.514 17.9509 61.8333 18.7183 61.7845C20.4577 61.6734 21.7528 61.9595 22.9544 61.9595C28.1313 61.9595 29.9759 60.4305 31.4005 58.3082C31.4005 59.7018 30.8746 61.6818 30.8746 61.6818C30.8746 61.6818 34.8624 62.9373 37.1269 60.6729C38.5474 59.2532 37.6781 54.8051 37.6781 51.7177C37.6781 49.9968 38.7855 49.2378 39.9097 48.9794C40.0259 48.9533 40.142 48.9331 40.2564 48.9163C40.2716 48.9138 40.2876 48.9121 40.3036 48.9104C40.4003 48.8978 40.4971 48.8877 40.5922 48.881C40.6166 48.8801 40.6393 48.8784 40.6629 48.8768C40.7504 48.8726 40.8354 48.8717 40.9195 48.8717H40.9919C41.0946 48.8742 41.1947 48.8801 41.2898 48.8894C41.3596 50.3048 41.2839 58.4984 41.2839 64.2383C41.2839 64.314 41.2881 64.3872 41.2898 64.4621L41.31 64.4638C41.31 64.4638 42.3804 64.532 45.7388 64.6893C45.8835 64.6969 46.0333 64.6969 46.1881 64.7002C46.1974 64.7002 46.2067 64.7011 46.2159 64.7011C46.3598 64.7028 46.5096 64.7053 46.6619 64.7078C46.6855 64.7087 46.709 64.7087 46.7326 64.7087C46.8714 64.7112 47.0137 64.712 47.1592 64.7137H47.272C47.4504 64.7154 47.633 64.7162 47.8215 64.7162C47.7163 64.6573 47.6153 64.5866 47.5177 64.5075C47.4857 64.4815 47.4554 64.4486 47.4243 64.4209C47.3587 64.3637 47.2939 64.3047 47.2316 64.2383C47.1954 64.1996 47.1609 64.1541 47.1256 64.112C47.0717 64.0481 47.017 63.9841 46.9648 63.9126C46.9278 63.863 46.8933 63.8083 46.8588 63.7561C46.81 63.6837 46.762 63.6122 46.7149 63.5339C46.6796 63.4759 46.6459 63.4136 46.6123 63.3522C46.5685 63.2714 46.5239 63.1906 46.4818 63.1056C46.4482 63.0391 46.417 62.9685 46.3851 62.8986C46.3438 62.8111 46.3043 62.7227 46.2656 62.6302C46.2344 62.557 46.2041 62.4804 46.1738 62.4038C46.1368 62.3087 46.1006 62.2119 46.0653 62.1126C46.0358 62.0319 46.0081 61.9502 45.9803 61.8661C45.9458 61.7651 45.9121 61.6608 45.8793 61.5556C45.8532 61.4689 45.8271 61.3814 45.8011 61.2922C45.7699 61.1845 45.7396 61.0742 45.7102 60.9632C45.6849 60.8706 45.6605 60.7789 45.6361 60.6838C45.6084 60.5702 45.5806 60.4541 45.5537 60.3379C45.5309 60.2403 45.5082 60.1444 45.4863 60.0443C45.4611 59.9264 45.4358 59.8053 45.4114 59.6841C45.3912 59.5831 45.3694 59.483 45.35 59.3786C45.3265 59.2549 45.3037 59.1295 45.2819 59.0042C45.2633 58.8998 45.244 58.7963 45.2263 58.6903C45.2044 58.559 45.1851 58.4252 45.1632 58.2923C45.1481 58.1888 45.1312 58.0861 45.1152 57.9809C45.0942 57.8311 45.0732 57.6805 45.0538 57.529C45.0294 57.3447 45.005 57.1579 44.9823 56.9694C44.9646 56.8306 44.9478 56.6926 44.9318 56.552C44.9007 56.2794 44.8729 56.0051 44.846 55.7291C47.0448 52.9345 48.3584 49.412 48.3584 45.5798C48.3584 36.5026 41.0003 29.1445 31.9239 29.1445C28.2003 29.1445 24.7687 30.3832 22.0128 32.4693H22.0111C22.0397 32.9237 22.0406 33.3377 22.0254 33.7197C22.0254 33.7122 22.0271 33.7054 22.0279 33.6979C24.1956 32.3279 26.169 31.2861 28.165 30.8208C36.1356 28.9602 42.3745 33.527 44.0087 36.373C36.2004 30.3647 26.9692 33.262 21.1881 37.0327C21.1881 37.0327 20.3248 37.7505 19.5186 38.5348C19.0137 38.3278 18.1327 38.401 17.4973 38.6644C15.9768 39.3191 13.3841 42.1364 13.0332 43.3422C13.3883 42.4385 14.4292 41.9041 16.1484 41.7653C20.3803 41.4228 28.961 43.9389 33.9368 47.4277Z" fill="white"/>
<path d="M45.5425 73.0059C43.7973 73.5023 31.9415 79.7858 27.123 83.8931C27.9082 84.3787 30.1752 85.5887 31.1858 85.9944C35.7644 81.7196 48.2303 75.2973 49.1172 75.0717C47.7969 74.518 46.3134 73.5764 45.5425 73.0059Z" fill="white"/>
</g>
<path d="M105.146 38.6201C105.146 38.6201 104.186 42.789 103.459 45.9517C102.932 42.8268 102.225 38.6201 102.225 38.6201H92.2109V47.0814H94.7707C95.1253 48.9992 98.7092 68.4116 98.7092 68.4116H106.707C106.707 68.4116 108.251 62.0307 109.308 57.6669C110.463 62.0313 112.149 68.4116 112.149 68.4116H120.128C120.128 68.4116 123.487 49.0218 123.822 47.0814H126.393V38.6201H116.475C116.475 38.6201 115.733 43.1368 115.173 46.5491C114.298 43.0908 113.168 38.6201 113.168 38.6201H105.146Z" fill="#BC9B6A"/>
<path d="M127.303 38.6201V47.0814H129.325V59.9489H127.303V68.4116H149.008V55.4192H145.732V51.0205H148.799V38.6201H127.303ZM139.989 49.0403H138.413V47.0814H139.989V49.0403ZM140.198 59.9489H138.413V57.5366H140.198V59.9489Z" fill="#BC9B6A"/>
<path d="M159.313 38.6201C154.752 38.6201 151.806 41.6484 151.806 46.3358V50.17C151.806 52.7387 152.791 54.8067 154.437 56.1504H151.771V68.4116H163.809C168.729 68.4116 171.909 65.3964 171.909 60.7295V57.1758C171.909 54.1215 171.079 51.9602 169.452 50.6015H171.351V38.6201H159.313ZM162.471 47.0814V48.9018H161.055C161.055 48.9018 160.947 48.8991 160.895 48.897V47.0814H162.471ZM162.694 57.8165C162.694 57.8165 162.767 57.8199 162.784 57.8206V59.9448C162.732 59.9462 162.624 59.9489 162.624 59.9489H160.686V57.8165H162.694Z" fill="#BC9B6A"/>
<path d="M172.363 38.6201V50.7064H179.542V59.9489H177.451V68.4116H190.617V59.9489H188.596V50.7064H195.705V38.6201H172.363Z" fill="#BC9B6A"/>
<path d="M196.627 38.6201V47.0814H198.717V59.9489H196.627V68.4116H207.457V59.748C207.573 60.0189 208.242 61.58 208.242 61.58H214.468C214.468 61.58 215.368 59.6396 215.725 58.8686V68.4116H226.522V59.9489H224.5V47.0814H226.522V38.6201H215.876C215.876 38.6201 212.955 45.0861 211.541 48.2145C210.151 45.082 207.283 38.6201 207.283 38.6201H196.627Z" fill="#BC9B6A"/>
<path d="M237.093 38.5156C231.879 38.5156 229.236 41.4046 229.236 47.1024V58.9871C229.236 62.5503 229.236 68.5156 237.303 68.5156H242.703C247.514 68.5156 250.385 65.462 250.385 60.3465V46.824C250.385 41.4664 247.707 38.5156 242.843 38.5156H237.093ZM240.926 46.9083C240.926 46.9083 241.11 46.9131 241.29 46.9186C241.295 47.1367 241.296 47.3981 241.296 47.6601V59.162C241.296 59.4384 241.296 59.7148 241.291 59.9487H238.417C238.406 59.6661 238.396 59.3712 238.396 59.3712V47.8343C238.396 47.5997 238.397 47.2211 238.41 46.9083H240.926Z" fill="#BC9B6A"/>
<path d="M268.121 38.6201V48.0561C266.134 44.0189 263.477 38.6201 263.477 38.6201H253.066V47.2563H255.122V59.9489H253.066V68.4116H263.758V58.3611C265.883 62.5636 268.842 68.4116 268.842 68.4116H276.792V47.0814H278.848V38.6201H268.121Z" fill="#BC9B6A"/>
<path d="M279.792 38.6201V50.7064H286.972V59.9489H284.881V68.4116H298.047V59.9489H296.026V50.7064H303.136V38.6201H279.792Z" fill="#BC9B6A"/>
<path d="M117.576 39.917C117.576 39.917 116.322 47.56 115.444 52.9073C114.091 47.5579 112.158 39.917 112.158 39.917H106.178C106.178 39.917 104.486 47.2658 103.261 52.5911C102.366 47.2719 101.128 39.917 101.128 39.917H93.5078V45.7856H95.8502C96.2041 47.7027 99.7879 67.1144 99.7879 67.1144H105.686C105.686 67.1144 107.954 57.7484 109.253 52.384C110.668 57.7402 113.148 67.1144 113.148 67.1144H119.036C119.036 67.1144 122.395 47.7253 122.73 45.7856H125.096V39.917H117.576Z" fill="white"/>
<path d="M128.599 39.917V45.7856H130.621V61.2458H128.599V67.1144H147.711V56.7154H141.495V61.2458H137.116V56.2408H144.436V50.3372H137.116V45.7856H141.286V49.724H147.503V39.917H128.599Z" fill="white"/>
<path d="M159.313 39.917C155.481 39.917 153.102 42.3766 153.102 46.3357V50.1699C153.102 54.0274 155.567 56.5199 159.382 56.5199H162.693C163.418 56.5199 163.846 56.5604 163.964 56.6379C163.964 56.6448 164.081 56.8361 164.081 57.5234V60.1724C164.081 60.888 163.595 61.2458 162.623 61.2458H159.389V57.4459H153.067V67.1144H163.809C168.005 67.1144 170.611 64.6685 170.611 60.7293V57.1757C170.611 52.349 168.504 50.198 163.774 50.198H161.055C159.599 50.198 159.599 50.1802 159.599 49.2288V46.7541C159.599 45.7856 159.677 45.7856 160.289 45.7856H163.767V49.3056H170.054V39.917H159.313Z" fill="white"/>
<path d="M173.658 39.917V49.4092H179.91V45.7856H180.838V61.2458H178.746V67.1144H189.32V61.2458H187.299V45.7856H188.191V49.4092H194.409V39.917H173.658Z" fill="white"/>
<path d="M216.713 39.917C216.713 39.917 213.066 47.9901 211.531 51.388C210.02 47.9853 206.439 39.917 206.439 39.917H197.924V45.7856H200.014V61.2458H197.924V67.1144H206.161V53.4258C207.461 56.4603 209.098 60.2828 209.098 60.2828H213.64C213.64 60.2828 215.52 56.2257 217.021 52.9862V67.1144H225.225V61.2458H223.203V45.7856H225.225V39.917H216.713Z" fill="white"/>
<path d="M237.093 39.8115C231.213 39.8115 230.533 43.9722 230.533 47.102V58.9866C230.533 63.4902 231.042 67.2188 237.302 67.2188H242.703C246.762 67.2188 249.09 64.7132 249.09 60.3461V46.8235C249.09 42.1703 246.988 39.8115 242.843 39.8115H237.093ZM237.215 61.115C237.099 60.9161 237.099 59.8323 237.099 59.3707V47.8338C237.099 45.6108 237.172 45.6108 238.382 45.6108H240.926C242.037 45.6108 242.592 46.2938 242.592 47.6596V59.1615C242.592 60.5507 242.2 61.2453 241.415 61.2453H238.312C237.44 61.2453 237.235 61.128 237.215 61.115Z" fill="white"/>
<path d="M269.419 39.917V53.6261C266.853 48.414 262.669 39.917 262.669 39.917H254.362V45.9598H256.419V61.2458H254.362V67.1144H262.462V52.9238C265.115 58.1716 269.639 67.1144 269.639 67.1144H275.497V45.7856H277.553V39.917H269.419Z" fill="white"/>
<path d="M281.088 39.917V49.4092H287.342V45.7856H288.268V61.2458H286.177V67.1144H296.75V61.2458H294.729V45.7856H295.622V49.4092H301.84V39.917H281.088Z" fill="white"/>
<path d="M121.64 44.4888L117.945 65.819H114.146L109.197 47.1027L104.666 65.819H100.868L96.93 44.4888H94.8037V41.2129H100.031L103.064 59.2322L107.211 41.2129H111.148L115.715 59.2665L118.677 41.2129H123.8V44.4888H121.64Z" fill="#231F20"/>
<path d="M129.896 65.819V62.5431H131.917V44.4888H129.896V41.2129H146.207V48.4279H142.582V44.4888H135.821V51.6345H143.139V54.9453H135.821V62.5431H142.791V58.012H146.415V65.819H129.896Z" fill="#231F20"/>
<path d="M158.093 58.7432V62.5431H162.624C164.471 62.5431 165.377 62.2632 165.377 60.1726V57.5237C165.377 55.3624 164.436 55.2231 162.694 55.2231H159.383C156.247 55.2231 154.399 53.3067 154.399 50.1701V46.3359C154.399 43.2342 156.106 41.2129 159.313 41.2129H168.758V48.0088H165.064V44.4888H160.289C158.755 44.4888 158.302 45.2906 158.302 46.7543V49.229C158.302 51.2154 159.243 51.4946 161.055 51.4946H163.774C167.921 51.4946 169.316 53.2018 169.316 57.1759V60.7296C169.316 64.0404 167.19 65.819 163.809 65.819H154.365V58.7432H158.093Z" fill="#231F20"/>
<path d="M189.488 48.1138V44.4888H186.003V62.5431H188.025V65.819H180.044V62.5431H182.135V44.4888H178.614V48.1138H174.956V41.2129H193.113V48.1138H189.488Z" fill="#231F20"/>
<path d="M218.318 65.819V47.1027L212.811 58.9874H209.952L204.864 47.1027V65.819H199.219V62.5431H201.309V44.4888H199.219V41.2129H205.596L211.521 54.5612L217.55 41.2129H223.929V44.4888H221.906V62.5431H223.929V65.819H218.318Z" fill="#231F20"/>
<path d="M247.793 60.3466C247.793 63.6581 246.362 65.9223 242.703 65.9223H237.302C232.318 65.9223 231.83 63.5182 231.83 58.9871V47.1025C231.83 43.304 232.946 41.1084 237.093 41.1084H242.843C246.607 41.1084 247.793 43.339 247.793 46.824V60.3466ZM243.889 47.6601C243.889 45.1868 243.68 44.3143 240.926 44.3143H238.382C235.872 44.3143 235.803 45.6738 235.803 47.8344V59.3712C235.803 61.8096 235.942 62.5429 238.312 62.5429H241.415C243.854 62.5429 243.889 61.3926 243.889 59.162V47.6601Z" fill="#231F20"/>
<path d="M274.199 44.4888V65.819H270.436L261.165 47.4862V65.819H255.659V62.5431H257.715V44.663H255.659V41.2129H261.862L270.714 59.1973V41.2129H276.256V44.4888H274.199Z" fill="#231F20"/>
<path d="M296.919 48.1138V44.4888H293.433V62.5431H295.455V65.819H287.474V62.5431H289.565V44.4888H286.045V48.1138H282.386V41.2129H300.544V48.1138H296.919Z" fill="#231F20"/>
<path d="M395.432 56.6802C395.432 55.2016 394.999 53.9387 394.181 52.958C394.921 51.5688 395.064 50.0505 395.064 48.8068V46.598C395.064 41.6532 392.194 38.6993 387.386 38.6993H373.564V47.0652H375.514V59.9667H373.564V68.3319H384.651V57.7723H386.33V68.3319H397.419V59.9667H395.432V56.6802ZM386.037 49.3327H384.615V47.0652H386.025C386.03 47.1656 386.037 47.2988 386.037 47.2988V49.3327ZM364.663 38.6993H354.462C354.462 38.6993 350.019 58.1555 349.606 59.9667H347.1V68.3319H357.322C357.322 68.3319 358.559 62.1195 358.868 60.5678H360.216C360.525 62.1195 361.761 68.3319 361.761 68.3319H371.948V59.9667H369.448C369.039 58.1493 364.663 38.6993 364.663 38.6993ZM349.035 38.6993H338.963C338.963 38.6993 338.299 42.6941 337.816 45.6166C337.018 42.6354 335.967 38.6993 335.967 38.6993H328.087C328.087 38.6993 327.136 42.5828 326.425 45.4875C325.94 42.6306 325.274 38.6993 325.274 38.6993H315.136V47.0652H317.635C317.99 48.9536 321.645 68.3319 321.645 68.3319H329.542C329.542 68.3319 331.117 61.7992 332.173 57.4096C333.36 61.7978 335.126 68.3319 335.126 68.3319H342.882C342.882 68.3319 346.298 48.9782 346.635 47.0652H349.035V38.6993ZM421.074 56.6802C421.074 55.2016 420.638 53.9387 419.819 52.958C420.56 51.5688 420.703 50.0505 420.703 48.8068V46.598C420.703 41.6532 417.829 38.6993 413.022 38.6993H399.2V47.0652H401.149V59.9667H399.2V68.3319H410.288V57.7723H411.967V68.3319H423.06V59.9667H421.074V56.6802ZM411.672 49.3327H410.25V47.0652H411.661C411.666 47.1656 411.672 47.2988 411.672 47.2988V49.3327ZM424.842 47.0652H426.792V59.9667H424.842V68.3319H437.805V59.9667H435.894V47.0652H437.805V38.6993H424.842V47.0652ZM507.539 51.1849C507.325 50.9616 507.083 50.7875 506.849 50.5976H508.993V38.6993H497.342C495.068 38.6993 493.206 39.0593 491.521 40.8118C490.107 42.3362 489.37 44.2431 489.37 46.3412V50.058C489.37 52.749 490.405 54.8676 492.16 56.2137H489.37V68.3319H501.095C503.627 68.3319 505.231 68.0703 506.961 66.6402C508.627 65.2598 509.509 63.2778 509.509 60.9106V57.0115C509.509 54.5568 509.195 52.902 507.539 51.1849ZM498.434 47.0652H500.112V48.9659H498.434V47.0652ZM500.407 59.9667H498.251V57.8085H500.139C500.246 57.8085 500.315 57.8099 500.405 57.8119C500.405 57.8153 500.407 57.8577 500.407 57.8577V59.9667ZM453.639 38.5156H447.788C443.213 38.5156 440.258 41.6013 440.258 46.3774V61.095C440.258 65.5337 443.18 68.5156 447.531 68.5156H453.749C457.874 68.5156 460.984 65.4203 460.984 61.3163V46.0469C460.984 41.684 457.894 38.5156 453.639 38.5156ZM451.957 60.1505H449.286C449.286 60.1286 449.285 60.1238 449.285 60.102V46.8822H451.957V60.1505ZM485.342 56.6802C485.342 55.2016 484.909 53.9387 484.092 52.958C484.831 51.5688 484.973 50.0505 484.973 48.8068V46.598C484.973 41.6532 482.103 38.6993 477.295 38.6993H463.473V47.0652H465.423V59.9667H463.473V68.3319H474.561V57.7723H476.241V68.3319H487.328V59.9667H485.342V56.6802ZM475.946 49.3327H474.524V47.0652H475.935C475.94 47.1656 475.946 47.2988 475.946 47.2988V49.3327Z" fill="#BC9B6A"/>
<path d="M340.049 39.9824C340.049 39.9824 338.793 47.5587 338.109 51.6799C336.973 47.4283 334.983 39.9824 334.983 39.9824H329.092C329.092 39.9824 327.187 47.7623 326.196 51.8076C325.516 47.7903 324.191 39.9824 324.191 39.9824H316.417V45.7844H318.697C319.054 47.6728 322.707 67.049 322.707 67.049H328.533C328.533 67.049 331.272 55.6767 332.102 52.2358C333.022 55.6439 336.107 67.049 336.107 67.049H341.807C341.807 67.049 345.223 47.696 345.56 45.7844H347.752V39.9824H340.049Z" fill="white"/>
<path d="M355.483 39.9824C355.483 39.9824 351.041 59.4379 350.627 61.2484H348.382V67.049H356.27C356.27 67.049 357.506 60.838 357.815 59.2869H361.267C361.576 60.838 362.813 67.049 362.813 67.049H370.665V61.2484H368.422C368.013 59.431 363.64 39.9824 363.64 39.9824H355.483ZM359.563 50.5167C359.828 51.9298 359.983 52.7515 360.113 53.4481H358.986C359.123 52.7467 359.286 51.9305 359.563 50.5167Z" fill="white"/>
<path d="M374.845 39.9824V45.7844H376.795V61.2484H374.845V67.049H383.37V56.4894H386.539C387.613 56.4894 387.613 56.529 387.613 57.5276V67.049H396.137V61.2484H394.15V56.6807C394.15 55.1392 393.593 53.9419 392.551 53.1558C393.519 51.9968 393.782 50.5406 393.782 48.8072V46.5985C393.782 42.3947 391.451 39.9824 387.386 39.9824H374.845ZM386.209 45.7844C387.17 45.7844 387.318 45.7844 387.318 47.2992V49.7258C387.318 50.4628 387.318 50.6151 386.062 50.6151H383.331V45.7844H386.209Z" fill="white"/>
<path d="M400.481 39.9824V45.7844H402.431V61.2484H400.481V67.049H409.005V56.4894H412.175C413.249 56.4894 413.249 56.529 413.249 57.5276V67.049H421.778V61.2484H419.785V56.6807C419.785 55.1392 419.229 53.9419 418.187 53.1558C419.154 51.9968 419.418 50.5406 419.418 48.8072V46.5985C419.418 42.3947 417.087 39.9824 413.022 39.9824H400.481ZM411.844 45.7844C412.805 45.7844 412.954 45.7844 412.954 47.2992V49.7258C412.954 50.4628 412.954 50.6151 411.698 50.6151H408.968V45.7844H411.844Z" fill="white"/>
<path d="M426.124 39.9824V45.7844H428.073V61.2484H426.124V67.049H436.523V61.2484H434.61V45.7844H436.523V39.9824H426.124Z" fill="white"/>
<path d="M447.788 39.7988C443.934 39.7988 441.539 42.319 441.539 46.3773V61.0949C441.539 64.824 443.891 67.2329 447.531 67.2329H453.749C457.199 67.2329 459.702 64.7441 459.702 61.3162V46.0468C459.702 42.3675 457.209 39.7988 453.639 39.7988H447.788ZM448.159 61.377C448.159 61.3681 448.003 61.1297 448.003 60.1018V46.8192C448.003 45.6267 448.087 45.5987 449.185 45.5987H452.202C452.957 45.5987 453.24 45.5987 453.24 46.8192V60.2125C453.24 61.1359 453.096 61.3257 453.09 61.3326C453.088 61.3326 452.931 61.4323 452.312 61.4323H448.598C448.26 61.4323 448.161 61.377 448.159 61.377Z" fill="white"/>
<path d="M464.754 39.9824V45.7844H466.706V61.2484H464.754V67.049H473.279V56.4894H476.449C477.522 56.4894 477.522 56.529 477.522 57.5276V67.049H486.047V61.2484H484.058V56.6807C484.058 55.1392 483.502 53.9419 482.461 53.1558C483.429 51.9968 483.692 50.5406 483.692 48.8072V46.5985C483.692 42.3947 481.361 39.9824 477.295 39.9824H464.754ZM476.119 45.7844C477.08 45.7844 477.228 45.7844 477.228 47.2992V49.7258C477.228 50.4628 477.228 50.6151 475.971 50.6151H473.243V45.7844H476.119Z" fill="white"/>
<path d="M497.342 39.9824C495.287 39.9824 493.827 40.2638 492.445 41.6994C491.266 42.9732 490.651 44.5721 490.651 46.3417V50.0585C490.651 54.0484 493.173 56.5277 497.231 56.5277H500.139C500.476 56.5277 501.29 56.5304 501.625 56.6062C501.685 56.9095 501.69 57.576 501.69 57.8581V60.1393C501.69 61.2484 501.637 61.2484 500.763 61.2484H496.967V57.4948H490.651V67.049H501.094C503.418 67.049 504.698 66.8468 506.143 65.653C507.506 64.5233 508.227 62.8849 508.227 60.911V57.0119C508.227 54.7977 507.986 53.4945 506.618 52.0753C505.45 50.863 503.939 50.2476 502.125 50.2476H498.224C497.456 50.2476 497.287 50.1309 497.281 50.1268C497.283 50.1268 497.152 49.9417 497.152 49.064V46.8935C497.152 46.0937 497.262 45.9114 497.274 45.8923C497.279 45.8936 497.462 45.7844 498.261 45.7844H501.396V49.3167H507.711V39.9824H497.342Z" fill="white"/>
<path d="M337.088 65.7663L332.71 49.579L332.489 48.5122L332.269 47.4815L332.084 46.3034L331.865 47.5184L331.644 48.5122L331.422 49.579L327.523 65.7663H323.77L319.76 44.5017H317.699V41.2637H323.107L325.536 55.5762C325.829 57.3056 325.829 57.4524 325.904 58.776L326.014 60.4691C326.051 58.4086 326.198 57.1218 326.565 55.6869L330.098 41.2637H333.997L337.825 55.5762C338.045 56.5331 338.156 57.0481 338.302 58.5937C338.34 58.9235 338.377 59.4768 338.451 60.1748C338.487 57.9305 338.561 56.6437 338.744 55.6869L341.136 41.2637H346.471V44.5017H344.485L340.731 65.7663H337.088Z" fill="#231F20"/>
<path d="M363.865 65.7663L362.32 58.0036H356.763L355.217 65.7663H349.663V62.5297H351.649L356.507 41.2637H362.613L367.397 62.5297H369.384V65.7663H363.865ZM359.596 43.7286L357.426 54.73H361.657L359.596 43.7286Z" fill="#231F20"/>
<path d="M388.894 65.7663V57.5268C388.894 55.7969 388.304 55.2074 386.54 55.2074H382.086V65.7663H376.127V62.5297H378.077V44.5017H376.127V41.2637H387.386C390.734 41.2637 392.5 43.1029 392.5 46.5978V48.8065C392.5 51.3821 391.875 52.5957 390.034 53.4788C391.911 53.8101 392.869 54.8762 392.869 56.6799V62.5297H394.855V65.7663H388.894ZM386.062 51.897C387.901 51.897 388.6 51.3076 388.6 49.7251V47.2985C388.6 45.1997 388.011 44.5017 386.209 44.5017H382.05V51.897H386.062Z" fill="#231F20"/>
<path d="M414.53 65.7663V57.5268C414.53 55.7969 413.942 55.2074 412.175 55.2074H407.723V65.7663H401.764V62.5297H403.714V44.5017H401.764V41.2637H413.022C416.369 41.2637 418.137 43.1029 418.137 46.5978V48.8065C418.137 51.3821 417.51 52.5957 415.671 53.4788C417.547 53.8101 418.504 54.8762 418.504 56.6799V62.5297H420.494V65.7663H414.53ZM411.697 51.897C413.537 51.897 414.235 51.3076 414.235 49.7251V47.2985C414.235 45.1997 413.647 44.5017 411.844 44.5017H407.687V51.897H411.697Z" fill="#231F20"/>
<path d="M427.405 65.7663V62.5297H429.355V44.5017H427.405V41.2637H435.242V44.5017H433.328V62.5297H435.242V65.7663H427.405Z" fill="#231F20"/>
<path d="M458.421 61.3162C458.421 64.0754 456.471 65.9516 453.749 65.9516H447.531C444.587 65.9516 442.821 64.1123 442.821 61.0949V46.3773C442.821 42.9938 444.624 41.0801 447.788 41.0801H453.639C456.471 41.0801 458.421 43.0669 458.421 46.0467V61.3162ZM449.185 44.3174C447.346 44.3174 446.721 44.943 446.721 46.8192V60.1018C446.721 62.0517 447.199 62.7135 448.598 62.7135H452.313C454.006 62.7135 454.521 62.1255 454.521 60.2125V46.8192C454.521 45.053 453.823 44.3174 452.203 44.3174H449.185Z" fill="#231F20"/>
<path d="M478.804 65.7663V57.5268C478.804 55.7969 478.215 55.2074 476.449 55.2074H471.998V65.7663H466.037V62.5297H467.987V44.5017H466.037V41.2637H477.295C480.645 41.2637 482.41 43.1029 482.41 46.5978V48.8065C482.41 51.3821 481.785 52.5957 479.945 53.4788C481.821 53.8101 482.777 54.8762 482.777 56.6799V62.5297H484.763V65.7663H478.804ZM475.971 51.897C477.81 51.897 478.508 51.3076 478.508 49.7251V47.2985C478.508 45.1997 477.921 44.5017 476.119 44.5017H471.961V51.897H475.971Z" fill="#231F20"/>
<path d="M491.933 58.776H495.687V62.5297H500.763C502.383 62.5297 502.971 61.941 502.971 60.1386V57.8574C502.971 55.428 502.787 55.245 500.139 55.245H497.231C493.884 55.245 491.933 53.3682 491.933 50.0578V46.341C491.933 44.8691 492.449 43.581 493.369 42.588C494.324 41.5949 495.283 41.2637 497.342 41.2637H506.43V48.0334H502.677V44.5017H498.262C496.386 44.5017 495.87 45.0173 495.87 46.8928V49.0633C495.87 50.977 496.386 51.5289 498.224 51.5289H502.125C503.597 51.5289 504.773 52.0077 505.694 52.9632C506.686 53.9945 506.946 54.84 506.946 57.0112V60.9103C506.946 62.4935 506.393 63.7816 505.326 64.6633C504.26 65.5464 503.413 65.7663 501.095 65.7663H491.933V58.776Z" fill="#231F20"/>
<defs>
<clipPath id="clip0_5416_24244">
<rect width="68.2108" height="75" fill="white" transform="translate(0 16.0156)"/>
</clipPath>
</defs>
</svg>
