<svg width="155" height="171" viewBox="0 0 155 171" fill="none" xmlns="http://www.w3.org/2000/svg">
<g clip-path="url(#clip0_5416_14699)">
<path d="M73.3258 4.33203C48.1311 4.33203 19.2456 9.42095 4.64259 16.4287L0 18.6565L0.0305233 23.8065C0.206003 53.9528 1.9112 85.3103 13.1076 110.425C25.6544 138.57 46.2848 158.253 74.4226 168.923L77.3047 170.016L80.1886 168.923C108.326 158.253 128.955 138.57 141.502 110.425C152.698 85.3103 154.403 53.9528 154.581 23.8065L154.611 18.6565L149.969 16.4287C135.364 9.42095 106.478 4.33203 81.2816 4.33203H73.3258Z" fill="#BC9B6A"/>
<path d="M73.326 8.39844C48.6673 8.39844 20.5218 13.3176 6.40138 20.0946L4.08008 21.2085L4.09343 23.7835C4.267 53.4853 5.93026 84.3412 16.8196 108.769C28.9105 135.89 48.776 154.85 75.8647 165.123L77.3048 165.669L78.7468 165.123C105.834 154.85 125.699 135.89 137.79 108.769C148.679 84.3412 150.341 53.4853 150.514 23.7835L150.53 21.2085L148.208 20.0946C134.09 13.3176 105.942 8.39844 81.2817 8.39844H73.326Z" fill="#231F20"/>
<path d="M77.3045 161.321C103.897 151.237 122.531 133.014 134.076 107.113C144.038 84.7663 146.257 56.722 146.449 23.7585C132.92 17.2657 105.482 12.4629 81.2814 12.4629H73.3257C49.1266 12.4629 21.6888 17.2657 8.15967 23.7585C8.35231 56.722 10.5706 84.7663 20.531 107.113C32.0784 133.014 50.7117 151.237 77.3045 161.321Z" fill="#9E0032"/>
<path d="M97.134 110.022C98.7267 125.566 114.894 130.945 119.868 130.79C125.304 123.954 142.364 101.619 142.364 68.1724C142.364 30.5301 111.85 0.015625 74.2091 0.015625C59.9704 0.015625 46.6415 4.27483 35.7084 11.7404C44.4366 15.8775 49.5751 30.8944 49.8936 37.3108C49.9585 38.3408 49.9604 39.2793 49.9261 40.1452C49.5541 42.8537 49.5846 44.5551 48.0282 47.6546C48.0282 47.6546 46.0712 49.2816 44.2439 51.0593C43.0995 50.5901 41.1025 50.756 39.6624 51.353C36.2157 52.837 30.3391 59.2229 29.5437 61.9562C29.5437 61.9562 29.5437 61.96 29.5437 61.9619C29.5399 61.9715 29.5341 61.9848 29.5322 61.9963C28.3916 64.9928 30.5451 69.7575 36.0536 76.1072C34.6593 79.0903 33.513 81.7092 33.6388 82.1231C33.6427 82.1364 33.6522 82.1498 33.6579 82.1631H33.6446C34.3198 84.4558 37.5643 85.1558 40.4063 86.1095C41.0872 86.9697 41.3371 88.3087 40.3052 89.7622C40.309 89.7698 40.3128 89.7774 40.3147 89.785C40.3147 89.785 40.309 89.7812 40.3052 89.7793C40.0744 91.0249 40.7382 91.8031 41.7395 92.0911C41.1311 92.6595 40.557 93.4358 40.2575 94.1206C40.2575 94.1225 40.2537 94.1225 40.2537 94.1244C40.2575 94.1282 40.2594 94.132 40.2613 94.1358C40.824 95.5091 41.1502 97.0522 41.1044 97.5691C41.1063 97.5691 41.1101 97.5653 41.112 97.5653C41.112 97.6969 41.1044 97.8228 41.0967 97.9391C41.03 98.9272 40.5818 99.4612 40.2899 100.245C39.6357 101.998 38.6801 105.275 39.9809 106.9C40.0782 107.062 40.1965 107.224 40.3548 107.385C41.9741 109.006 46.3173 110.238 49.0429 111.276C51.7629 112.311 53.9716 113.395 54.7346 115.825C55.6769 118.829 55.9019 120.927 54.6736 123.281C53.1953 126.111 41.1654 128.217 33.4729 129.157C44.3221 143.764 60.6304 155.313 77.3048 161.324C91.9936 155.777 104.577 147.997 115.985 135.349C106.265 133.069 93.8647 125.053 93.592 109.826L93.6377 109.83C93.6377 109.83 94.5819 109.889 97.1359 110.021" fill="#231F20"/>
<path d="M76.923 71.2163C74.4606 71.2163 70.3101 74.4589 69.5338 75.2352C64.3247 72.9234 62.1426 72.3836 57.4771 71.4757C52.8117 70.5678 49.5691 73.2915 47.3642 73.9381C45.1592 74.5886 43.8641 73.0321 42.569 68.7538C41.8556 68.0405 39.7384 68.3819 39.7346 68.3819C39.4676 68.9503 39.149 69.616 38.8 70.3427L36.0514 76.1087C34.6571 79.09 33.5108 81.7088 33.6367 82.1227C33.6405 82.1361 33.65 82.1494 33.6557 82.1628C33.7835 82.1742 39.9196 82.5901 44.381 82.7465C45.3309 83.6735 43.1774 86.7863 40.9 86.2828C40.7379 86.2236 40.57 86.1664 40.4041 86.1092C41.085 86.9694 41.3349 88.3084 40.303 89.7618C40.3068 89.7695 40.3106 89.7771 40.3125 89.7847C41.1766 90.6144 46.174 89.6093 47.5873 89.7771C51.837 90.2768 51.2114 92.024 51.2114 92.024C48.6192 91.5643 44.7415 91.4403 42.6644 92.2224C42.3344 92.2224 42.0235 92.1728 41.7374 92.0908C41.1289 92.6592 40.5548 93.4355 40.2553 94.1202C41.6992 94.7687 41.9052 94.2232 43.866 93.92C45.6666 93.6453 47.9803 93.506 48.2206 94.8431C45.762 94.8431 42.7693 97.1263 41.1098 97.5669C41.1098 97.6985 41.1022 97.8244 41.0946 97.9407C41.0278 98.9288 40.5796 99.4628 40.2877 100.247C39.6335 102 38.6779 105.277 39.9787 106.902C39.0899 105.412 40.6883 103.869 42.4278 103.758C46.3704 103.506 49.3059 104.155 52.0296 104.155C63.7639 104.155 67.9449 100.689 71.1741 95.8788C71.1741 99.0375 69.982 103.526 69.982 103.526C69.982 103.526 79.0211 106.371 84.1539 101.239C87.3736 98.0208 85.4033 87.9384 85.4033 80.9402C85.4033 77.0395 87.9134 75.3191 90.4617 74.7335C90.7249 74.6744 90.9881 74.6286 91.2475 74.5905C91.2818 74.5847 91.3181 74.5809 91.3543 74.5771C91.5737 74.5485 91.793 74.5256 92.0086 74.5103C92.0639 74.5084 92.1154 74.5046 92.1688 74.5008C92.3672 74.4913 92.5598 74.4894 92.7505 74.4894H92.9146C93.1473 74.4951 93.3742 74.5084 93.5898 74.5294C93.7481 77.7377 93.5764 96.3099 93.5764 109.32C93.5764 109.492 93.586 109.658 93.5898 109.828L93.6356 109.831C93.6356 109.831 96.0618 109.986 103.674 110.343C104.002 110.36 104.342 110.36 104.693 110.367C104.714 110.367 104.735 110.369 104.756 110.369C105.082 110.373 105.421 110.379 105.767 110.385C105.82 110.386 105.873 110.386 105.927 110.386C106.242 110.392 106.564 110.394 106.894 110.398H107.149C107.554 110.402 107.968 110.404 108.395 110.404C108.157 110.27 107.928 110.11 107.706 109.931C107.634 109.871 107.565 109.797 107.495 109.734C107.346 109.604 107.199 109.471 107.058 109.32C106.976 109.232 106.898 109.129 106.818 109.034C106.695 108.889 106.571 108.744 106.453 108.582C106.369 108.47 106.291 108.346 106.213 108.227C106.102 108.063 105.994 107.901 105.887 107.724C105.807 107.592 105.73 107.451 105.654 107.312C105.555 107.129 105.454 106.946 105.358 106.753C105.282 106.602 105.212 106.442 105.139 106.284C105.046 106.085 104.956 105.885 104.868 105.675C104.798 105.509 104.729 105.336 104.66 105.162C104.576 104.947 104.494 104.727 104.414 104.502C104.347 104.319 104.285 104.134 104.222 103.943C104.143 103.714 104.067 103.478 103.993 103.239C103.934 103.043 103.874 102.845 103.815 102.642C103.745 102.398 103.676 102.148 103.609 101.897C103.552 101.687 103.497 101.479 103.441 101.263C103.379 101.006 103.316 100.743 103.255 100.479C103.203 100.258 103.152 100.041 103.102 99.8138C103.045 99.5468 102.988 99.2721 102.932 98.9974C102.886 98.7685 102.837 98.5416 102.793 98.305C102.74 98.0247 102.688 97.7405 102.638 97.4563C102.596 97.2197 102.553 96.9851 102.513 96.7448C102.463 96.4472 102.419 96.144 102.37 95.8426C102.335 95.608 102.297 95.3753 102.261 95.1369C102.213 94.7974 102.165 94.4559 102.122 94.1126C102.066 93.6949 102.011 93.2714 101.959 92.8442C101.919 92.5295 101.881 92.2167 101.845 91.8981C101.774 91.2801 101.711 90.6583 101.65 90.0327C106.634 83.6982 109.612 75.7139 109.612 67.0277C109.612 46.4526 92.9336 29.7744 72.3605 29.7744C63.9203 29.7744 56.142 32.5821 49.8953 37.3105H49.8915C49.9563 38.3405 49.9582 39.2789 49.9239 40.1449C49.9239 40.1277 49.9277 40.1125 49.9296 40.0953C54.843 36.9901 59.3159 34.6287 63.8402 33.5739C81.907 29.3567 96.0484 39.7081 99.7526 46.1589C82.0539 32.5401 61.1298 39.1073 48.026 47.6543C48.026 47.6543 46.069 49.2813 44.2418 51.059C43.0973 50.5898 41.1003 50.7557 39.6602 51.3527C36.2136 52.8367 30.3369 59.2226 29.5415 61.9559C30.3464 59.9074 32.7059 58.6962 36.6027 58.3815C46.1949 57.6051 65.6446 63.3082 76.923 71.2163Z" fill="white"/>
<path d="M103.23 129.193C99.274 130.319 72.4007 144.561 61.479 153.871C63.2586 154.972 68.3971 157.715 70.6879 158.634C81.066 148.944 109.322 134.387 111.332 133.876C108.34 132.621 104.977 130.487 103.23 129.193Z" fill="white"/>
</g>
<defs>
<clipPath id="clip0_5416_14699">
<rect width="154.611" height="170" fill="white" transform="translate(0 0.015625)"/>
</clipPath>
</defs>
</svg>
